<?xml version="1.0" encoding="utf-8"?>
<!-- Generator: Adobe Illustrator 27.8.1, SVG Export Plug-In . SVG Version: 6.00 Build 0)  -->
<svg version="1.1" id="Layer_2_00000065036789662606514630000002195614091250494603_"
	 xmlns="http://www.w3.org/2000/svg" xmlns:xlink="http://www.w3.org/1999/xlink" x="0px" y="0px" viewBox="0 0 100 100"
	 style="enable-background:new 0 0 100 100;" xml:space="preserve">
<style type="text/css">
	.st0{fill:url(#SVGID_1_);}
	.st1{fill:#FFFFFF;}
	.st2{fill:#F16D00;}
</style>
<g id="Layer_1-2">
	
		<linearGradient id="SVGID_1_" gradientUnits="userSpaceOnUse" x1="19.3407" y1="97.2205" x2="81.0807" y2="2.1305" gradientTransform="matrix(1 0 0 -1 0 100)">
		<stop  offset="0" style="stop-color:#294BCC"/>
		<stop  offset="0.99" style="stop-color:#009982"/>
	</linearGradient>
	<polyline class="st0" points="17,0 0,100 83,100 100,0 	"/>
	<path class="st1" d="M54.5,83l-7.4-24.3h-8L34.9,83H19.2l11.9-67.4H55c13.7,0,23.3,8.1,23.3,19.7c0,1.5-0.1,3-0.4,4.6
		c-1.5,8.4-6.3,14-14.5,16.8L62.5,57l8.6,26H54.5L54.5,83z M41,48.2h7.8c7,0,11.4-3.3,13-9.7c0.2-0.8,0.2-1.9,0.2-2.3
		c0-5.5-4-9.4-9.9-9.4h-7.4C44.8,26.9,41,48.2,41,48.2z"/>
	<path class="st2" d="M55,16.6c13.1,0,22.3,7.7,22.3,18.7c0,1.4-0.1,2.9-0.4,4.5c-1.4,8.1-5.9,13.3-13.8,16l-1.9,0.6l0.6,1.9
		L69.7,82H55.3l-7-22.9l-0.4-1.4h-9.6L38,59.4L34,82H20.4L32,16.6H55 M39.8,49.2h9c7.4,0,12.3-3.6,14-10.5c0.2-0.9,0.2-2.2,0.2-2.5
		c0-6.1-4.5-10.4-10.9-10.4H44l-0.3,1.6l-3.4,19.3L39.8,49.2 M55,14.5H30.3L18.1,84h17.7L40,59.7h6.4L53.8,84h18.7l-8.7-26.3
		c8.5-2.9,13.6-8.8,15.1-17.6c0.3-1.7,0.4-3.3,0.4-4.8C79.3,22.7,68.7,14.6,55,14.5L55,14.5L55,14.5z M42.2,47.2l3.4-19.3h6.5
		c5.4,0,8.8,3.5,8.8,8.4c0,0.6,0,1.4-0.2,2c-1.4,5.6-5.1,9-12,9H42.2z"/>
</g>
</svg>
